# xmcd
#
# Track frame offsets:
#	150
#	27597
#	41867
#	54492
#	67179
#	91627
#	103313
#	120209
#	132765
#	158271
#	169531
#	184816
#	207747
#	259760
#	273800
#	301416
#	330668
#
# Disc length: 4425 seconds
#
# Revision: 0
# Processed by: cddbd v1.5.1PL2 Copyright (c) Steve Scherf et al.
# Submitted via: dBpowerAMP V4.0
#
DISCID=ea114711
DTITLE=Mad Cow String Band - Live at the Delta of Venus
DYEAR=2006
DGENRE=Bluegrass
TTITLE0=Dusty Box Car Wall
TTITLE1=Road to Columbus
TTITLE2=I've been all around this world
TTITLE3=You wrecked my wallet
TTITLE4=Reuben
TTITLE5=Mad Hoss
TTITLE6=Workin' on a building
TTITLE7=Rosie Day
TTITLE8=Why you been gone so long
TTITLE9=Elsie's Reel
TTITLE10=Feast here tonight
TTITLE11=Goin' away to roam
TTITLE12=Whiskey before breakfast-/ The Sinner have come
TTITLE13=Ida Red
TTITLE14=Minor Swing
TTITLE15=All of Me
TTITLE16=Untiltled Track
EXTD=Recorded live at the Delta of Venus Cafe and Pub October 23, 2005.\nCrossbill Records.
EXTT0=
EXTT1=
EXTT2=
EXTT3=
EXTT4=
EXTT5=
EXTT6=
EXTT7=
EXTT8=
EXTT9=
EXTT10=
EXTT11=
EXTT12=
EXTT13=
EXTT14=
EXTT15=
EXTT16=
PLAYORDER=
